<?xml version="1.0" encoding="UTF-8"?><svg id="b" xmlns="http://www.w3.org/2000/svg" viewBox="0 0 92.86 140.27"><g id="c"><g id="d"><path d="M75.77,110.41c2.76-.35,5.97-.02,8.27,1.66.54.4,1.26,1.31,1.82,1.55.89.39,3.1.33,4.29.64,5.81,1.51.9,6.29-1.75,8.19-8.53,6.12-21.8,8.18-31.82,5.15-1.92-.58-3.78-1.73-5.87-1.46-4.9,3.69-10.43,6-16.24,7.88-3.53,1.14-7.24,2.18-10.96,2.33-.91,1.83,7.76,2.78,12.76,3.06,5.56.31,11.04-2.36,13.32-3.15-.3.37.11.11-.78,1.05-.74.78-7.51,3.09-14.02,2.95-4.21-.09-11.34-1.91-13.94-3.17-.34-.17-2.8-.27-3.01-.33-.31-.09-.85.13-1.27.12-4.94-.17-12.23-2.74-12.77-8.51-.08-.83.22-2.12.12-2.71-.63-3.71-3.51-6.99-3.87-11.05-.49-5.56,3.26-12.77,6.73-16.97.15-.18,1.23-1.54,1.42-1.36-3.52,5.68-8.42,13.28-6.45,20.26.76,2.68,2.57,5.07,2.95,7.88l1.48-1.44c.67-2.61,2.16-4.89,3.39-7.25-1.08-3.84.51-7.21,3.43-9.67.83-.71,2.39-1.36,2.99-1.94.81-.79,1.9-2.63,2.73-3.63,1.33-1.61,2.77-3.12,4.09-4.73-.16-1.09-.51-2.14-.69-3.22-1.41-8.54,1.19-17.52,7.03-23.89,1.4-1.52,5.45-4.87,6.61-1.42.71,2.1-.79,4.29,0,5.97.35.74,1,1.52,1.35,2.28.83,1.82.79,3.58.5,5.53-.03.17-.24.26.1.23,1.82-1.72,3.66-3.43,5.39-5.25s3.09-3.67,4.92-5.32c5.99-5.43,13.44-7.88,17.53-15.41,2.47-4.54,2.25-9.03-.88-13.18-5.2-6.88-17.36-3.59-24.01-.68-4.03,1.76-9.35,5.3-13.73,5.47-4.83.18-4.75-3.57-.89-5.43.45-.22,1.34-.39,1.67-.66.31-.25.73-1.42.99-1.86.87-1.42,1.87-2.44,3.25-3.36.61-.41,2.18-1.08,2.55-1.47.26-.28.24-.6.42-.88,1.85-2.89,4.34-4.41,7.68-5.16,1.17-.69.39-3.57-.37-4.4-.65-.71-2.52-1.45-3.43-2.01-1.94-1.2-3.65-2.51-4.52-4.69-.43-1.07-.29-1.87-1.33-2.69-1.56-1.22-3.51-2.02-5.11-3.45-2.31-2.05-4.44-5.88-3.32-9.01,1.61-4.5,7.98.77,10.21,2.12,5.55,3.34,11.57,5.83,17.25,8.95,24.49,13.49,41.02,37.04,37.25,66.08-1.5,11.56-6.52,22.25-13.47,31.47ZM84.07,49.32c-3.81-10.4-10.82-18.94-19.26-25.94-8.98-7.44-17.26-10.77-27.26-16.19-2.66-1.44-4.93-3.14-7.45-4.62-2.81-1.64-5.34-1.81-4.31,2.36,1.18,4.74,6.5,7.51,10.54,9.56,5.95,3.03,12.7,4.76,17.64,9.46.41.39,2.45,2.52,2.59,2.86.02.06.03.21-.06.19-1.35-1.25-2.69-2.52-4.17-3.61-5.18-3.79-11.37-5.7-17.16-8.32.35,1.25.57,2.05,1.42,3.05,2.54,2.99,7.27,4.26,10.73,5.87s6.52,3.63,8.73,6.51l-3.87-2.8c-2.48-1.6-5.16-2.92-8.06-3.55-.08.09.34,1.36.37,1.63.05.45-.1,2.03.14,2.2,3.17.51,6.26,1.89,8.69,3.95-1.72-.72-3.35-1.67-5.16-2.17-4.27-1.16-9.22-.16-11.7,3.72,5.11-1.29,10.78-1.81,15.85-.09.14.05.39.03.36.22-4.74-.95-9.74-.75-14.4.59-3.3.94-7.22,2.73-8.69,6.03,4.53-1.39,8.94-3.39,13.59-4.37s9.86-.93,14.68.15l2.98.91c-1.4-2.2-2.35-4.79-2.59-7.39-.09-.95,0-1.82-.15-2.83-1.63-10.76-19.92-12.37-27.09-18.7-.69-.61-1.45-1.42-1.81-2.27,2.49,2.9,6.25,4.58,9.73,6.03,7.2,2.99,16.49,4.88,19.78,12.91.66-1.74,2.33-2,4.01-1.8,2.24.27,1.99,2.11,2.4,3.82.35.09.67.04,1.02.14s.86.62.99.64c.15.02.42-.1.65-.09,1.03.08,4.3,3.86,5.05,4.82,6.89,8.95,7.33,19.99,1.3,29.55-2.94,4.65-8.91,7.81-12.7,12.07-3.99,4.48-4.82,10.04-6.16,15.69.1.1,2.41-1.18,2.53-1.29.27-.25.59-1.05.78-1.43,2.18-4.29,3.38-9.04,4.79-13.62l.19-.13c-.3,3.33-1.4,6.52-2.46,9.66l-1.49,3.82c1.34-1.2,2.8-2.31,4.09-3.56.39-.38,1.22-1.11,1.45-1.53.36-.67.75-2.36.97-3.18.87-3.1,1.44-6.29,2.37-9.37.24-.03.1.27.09.41-.34,3.49-.89,7-1.91,10.35.68-.57,1.26-1.31,1.81-2.02,1.88-2.4,2.27-3.61,3.08-6.52.67-2.38,1.12-4.82,1.92-7.16.29-.27.19-.07.15.15-.47,2.59-.97,5.19-1.51,7.76.16.22,2.56-4.45,2.7-4.75,3.18-6.7,5.25-14.53,5.34-21.96.31-.07.21.05.29.17.53.78.69,1.2.68,2.17,1.25.25,2.04.95,2.92,1.81ZM64.36,26.76c-.29-1.26.1-2.59-1.4-3.08s-3.14.02-4.03,1.35c.15,1.07.36,2.14.5,3.21.07.51-.16,1.09.33,1.49.65-1.86,2.7-2.99,4.6-2.98ZM66.56,27.67c-3.03-1.25-7.08,1.22-6.35,4.67,1.43-.77,2.7-.63,4.15,0-.1-1.92.59-3.6,2.21-4.67ZM65.13,31.1c-.08.61.06,1.38,0,2.01,1.3-.55,2.67-.54,3.98-.02.49.19,1.49.99,1.69,1.04.27.06,1.03-.31,1.41-.36.26-.03.46.06.7.06-.83-1.26-3.75-5.32-5.05-5.72s-2.58,1.93-2.73,3ZM63.32,38.43v-2.01c0-.13.4-1.24.49-1.45.4-.92,1.39-1.5-.11-2.18-.98-.44-2.42-.52-3.38,0,.69,2.01,1.63,3.99,2.99,5.63ZM68.77,39.21v-2.01c0-.26.35-1.16.5-1.45.27-.52.71-.88,1.06-1.34-2.67-1.33-5.33-1.67-6.14,1.83-.2.85-.27,1.72-.08,2.57.38-.04.61-.41,1-.49,1.26-.26,2.65.12,3.67.88ZM76.16,41.02c-.6-1.83-1.17-3.88-2.18-5.53-.75-1.22-1.32-1.51-2.66-.8-1.84.97-2,3.06-1.64,4.91,1.17-.39,2.42,0,3.36.72.24.18.97,1.03,1.11,1.05.31.03,1.45-.62,2.01-.35ZM57.87,36.74c-6.85-1.86-13.87-.66-20.43,1.68-3.23,1.15-6.87,2.54-10.05,3.83-.79.32-4.31,1.97-2.3,2.94,2.88,1.4,9.75-2.63,12.5-3.9,6.65-3.09,12.31-5.13,19.84-4.44.15.01.47.12.44-.11ZM67.47,43.62c-.02-1.32.19-2.72,1.43-3.44-1.19-.92-3.15-1.82-4.48-.72l3.05,4.15ZM71.62,45.69c.14-1.6.89-2.79,1.94-3.94-.88-1.11-2.26-1.64-3.67-1.52-.19.66-.99.84-1.26,1.49-.31.75-.24,1.74-.25,2.54,1.26-.02,2.31.68,3.24,1.43ZM76.29,41.41c-2.59.27-3.96,2.79-4.02,5.19,1.47-.19,2.71.36,3.7,1.42.47.51.75,1.19,1.23,1.69.13-2.8-.28-5.58-.91-8.3ZM68.76,49.84c.12-.52.49-1.04.84-1.43.58-.65,1.35-.98,1.88-1.61-.88-1.13-1.98-1.65-3.37-1.89l.65,4.93ZM72.39,54.12c.69-1.2,1.98-2.13,3.37-2.41.46-.09,1.23.11,1.31-.39s-1.16-2.17-1.56-2.59c-2.7-2.86-4.71-.54-6.49,1.82,1.56.56,2.63,1.93,3.11,3.48l.26.08ZM82.51,55.03c.39-1.43,1.36-2.39,2.56-3.18-.76-1.64-2.18-3.24-3.99-3.7l-.39,4.47,1.82,2.41ZM71.62,55.03c-.41-1.67-1.46-3.25-3.24-3.63l-.72,2.59-1.49,2.99c1.63-1.23,3.31-2.21,5.45-1.95ZM76.81,52.44c-1.88.03-3.28,1.31-4.41,2.66,1.24.34,2.3,1.59,2.21,2.92.16-.01.22-.18.28-.3.29-.52,2.12-5.08,1.92-5.28ZM85.36,52.7c-.44-.33-2.7,2.7-2.47,3.55,2.18.55,2.83,2.15,3.76,3.91.23.44.54.37.63-.03.06-.26-.66-3.06-.79-3.57-.34-1.3-.81-2.56-1.13-3.86ZM82.12,56.32c.17-.23-1.24-2.44-1.69-2.59l-.91,4.02c.73-.71,1.58-1.23,2.59-1.43ZM68.51,62.03c1.1-.89,2.33-1.5,3.73-1.78.29-.06,1.39-.03,1.52-.16.69-.72.28-2.18-.14-2.97-1.39-2.57-5.5-.94-7.05.7l1.09,1.24c.55.89.91,1.91.86,2.97ZM86.53,62.16c-.28-1.62-2.08-4.78-3.79-5.1-1.3-.24-3.94,2.02-3.99,3.41,1.78.47,2.74,2.49,3.11,4.15l1.36-1.56c.9-.78,2.13-1.24,3.31-.91ZM67.73,62.68c.09-1.76-.78-3.71-2.4-4.51l-4.73,5.22c.08.24.16.16.32.06,2.22-1.33,4.3-1.84,6.81-.78ZM73.17,61c-1.74.12-3.49.87-4.74,2.08-.15.3.35.53.52.79.35.52.38.93.33,1.55,1.23-1.03,2.42-2.14,3.35-3.46.1-.14.64-.87.54-.95ZM87.83,63.2l-.45-2.2c-.42.37-.36.97-.3,1.47l.76.73ZM81.34,65.92c0-1.75-1.14-4.19-2.98-4.67l-2.72,7.52c1.39-1.79,3.22-3.59,5.7-2.85ZM88.35,69.3c-.27-1.88.09-3.68-.89-5.4-.31-.54-.58-1.04-1.25-1.09-1.73-.13-3.88,1.69-4.22,3.37,2.04.75,2.8,3.22,2.98,5.19l1.65-1.53,1.73-.54ZM61.11,68.91c1.13-.8,2.69-1.4,4.09-1.43.48-.01.82.28,1.35.06.17-.07,1.92-1.5,1.98-1.65.38-.86-.58-2.1-1.32-2.5-1.89-1.01-4.46-.21-6.23.72.91,1.52.83,3.21.13,4.8ZM60.33,69.17c.69-1.7.8-3.9-.73-5.17l-7.18,4.79.69.63c2.18-1.66,4.91-1.67,7.22-.24ZM84.33,72.54c.05-4.15-2.77-8.17-6.93-4.67-.22.18-1.19,1.05-.98,1.29,2.18.4,3.08,3.25,2.98,5.19,1.31-1.27,3.04-2.27,4.93-1.82ZM36.18,82.76c.23-2.35.78-4.51-.25-6.77-.35-.77-1.55-2.19-1.66-2.88-.28-1.81,2.04-7.7-1.99-5.35-2.01,1.17-4.46,4.65-5.64,6.68-3.5,5.98-4.58,13.15-2.82,19.89.17.21.13.08.26,0,.22-.14,2.21-2.14,2.25-2.3-.59-6.99-.03-14.14,4.06-20.05.26-.38,1.39-1.91,1.66-2.1.09-.07.23-.14.26,0-4.39,6.24-5.86,13.77-5.19,21.34l2.41-2.46c.43-3.58,1.26-9.37,3.96-11.99.11-.11.58-.54.76-.4-2.67,3.21-3.27,7.73-3.89,11.74l5.81-5.34ZM65.52,68.39c-1.28,0-2.75.35-3.85,1.02-.15.09-.64.28-.56.47l1.1,1.49,3.31-2.98ZM53.33,75.52c1.65-.94,3.58-1.03,5.36-.4.53-.63,1.03-1.31,1.58-1.93.89-1.01,1.69-.92.65-2.2-2.01-2.5-4.9-2.38-7.59-1.03,1.19,1.7.68,3.78,0,5.58ZM52.68,75.26c.35-1.64.97-3.38-.07-4.92-.17-.26-.71-.83-1.02-.79-.29.03-2.67,2.05-3.06,2.4-1.16,1.06-2.18,2.28-3.24,3.44.62-.23,1.16-.65,1.78-.88,1.2-.43,2.55-.61,3.77-.2l1.84.94ZM78.75,75.52c.25-2.49-.8-5.78-3.77-5.9-.15.07-1.5,2.46-1.7,2.83s-1.31,2.36-1.34,2.54c-.05.29.84,2.14.59,2.73,1.56-1.86,3.77-3.07,6.22-2.2ZM88.35,70.2c-1.51,0-2.76,1.26-3.36,2.55l.04.17c1.9,1.26,2.73,3.76,2.67,5.97.19-.02.22-.56.24-.73.37-2.58.37-5.35.41-7.96ZM81.99,79.35c.09.65-.07,1.47,0,2.14,1.4-1.19,3.37-2.06,5.19-1.3-.01-2.13-1.03-6.81-3.71-7-1.25-.09-3.47,1.26-4.05,2.42-.02.17,1.34,1.26,1.59,1.61.31.42.91,1.64.98,2.13ZM53.46,82.27c.27-2.34.18-5.85-2.36-6.91-2.03-.85-3.83-.02-5.68.82,1.89,1.75,1.63,4.23.91,6.48,1.48-1.05,3.29-1.38,5.09-1.13.75.1,1.35.53,2.04.74ZM54.11,82.4l1.88-.91c.34-1.39.81-2.76,1.38-4.06.49-1.12,1.5-1.69-.49-1.88-1.14-.11-2.34.31-3.42.64.04.62.49,1.11.68,1.71.47,1.53.29,2.97-.04,4.51ZM72.01,78.63c-.09-.35-.4-2.86-.71-2.85l-2.01,2.72c.97-.09,1.78-.24,2.72.13ZM81.22,82.78c.22-1.86.16-3.81-1.1-5.32-2.16-2.59-5.93-1.13-7.46,1.36,2.2,1.12,3.09,3.52,2.98,5.9,1.49-1.58,3.36-2.52,5.57-1.95ZM37.51,83.17c2.31-1.14,5.35-1.68,7.59-.13,1.16-1.92,1.44-5.33-.77-6.61l-6.81,6.74ZM74.99,85.25c-.13-3.03-1.26-6.24-4.87-5.97-1.73.13-2.48,1.1-3.69,2.14,1.65,1.34,1.74,3.42,1.43,5.38,1.96-1.7,4.63-2.46,7.13-1.56ZM85.24,90.18c.25-1.18.69-2.31,1-3.47.28-1.03,1.2-4.29,1.07-5.14-.18-1.2-1.62-.84-2.44-.64-1.1.28-2.4.97-2.88,2.06,0,.2,1.05,1.01,1.3,1.3.82.99,1.3,2.33,1.63,3.56l.32,2.34ZM66.95,87.32c.47-1.7.31-3.74-.99-5.05l-5.24,4.86,3.31-.59c.99.16,2.03.27,2.91.78ZM47.37,90.57c1.52-.86,3.21-1.36,4.98-1.15.51.06,1.24.46,1.6.48.42.03.72-1.53.78-1.9.32-1.86.24-3.31-1.33-4.56-2.28-1.81-4.94-.92-7.32.13-.07.09.89,1.37,1.02,1.64.85,1.75.84,3.53.28,5.37ZM55.67,82.79l-1.16.45c.31.33.73.61.78,1.1.19.04.14-.15.17-.28.1-.41.14-.85.22-1.27ZM46.32,90.95c1.09-2.38.45-6.24-2.11-7.41-2.39-1.09-4.95-.26-7.22.67,1.79,1.74,1.97,4.43.91,6.61,1.95-.86,4.08-1.37,6.2-.82.82.22,1.45.74,2.22.94ZM84.33,91.86v-2.27c0-1.19-.89-3.63-1.63-4.59-2.12-2.77-4.92-1.27-7.05.57.93.62,1.62,1.6,2.04,2.62.13.31.55,1.54.55,1.78v2.53c1.79-1.32,4.13-2.12,6.1-.65ZM28.69,91.47c2.31-1.14,4.62-1.54,7.05-.5.25.11.78.62.99.45,1.08-1.97,1.44-5.63-.92-6.76l-7.13,6.81ZM77.19,93.94c.49-1.91.24-4.45-.77-6.16-1.96-3.32-6.14-1.91-8.69-.13,2.14,1.81,3.2,4.54,2.72,7.33,1.83-1.5,4.55-2.12,6.74-1.04ZM69.67,95.75v-2.79c0-.17-.3-1.18-.38-1.43-1.34-4.14-5.46-4.76-9.08-3.11.36.49.84.74,1.2,1.27,1.4,2.02,1.02,4.55.75,6.84,2.16-1.58,5.07-1.89,7.52-.78ZM61.24,96.92c.18-2.15.63-4.18-.33-6.22s-2.32-2.1-4.25-1.4c-.32.12-1.61.73-1.79.94s-.12.09.02.25c.24.28.69.63.9.92,1.25,1.76,1.43,4.22.52,6.16,1.58-.76,3.19-1.14,4.93-.65ZM55.4,98.09c2.4-6.53-3.07-9.87-8.56-6.42,1.63,1.74,1.75,4.38,1.04,6.55,1.79-1.15,3.84-1.58,5.9-.91.57.19,1.05.58,1.61.78ZM38.42,99.39c.7-.21,1.31-.67,2-.91,1.43-.49,2.89-.64,4.38-.35.77.15,1.32.53,2.05.69.95-2.15.73-5.55-1.26-7.06-1.76-1.33-4.27-1.08-6.26-.47-.42.13-1.63.56-1.95.77-.22.14-.08.14,0,.26.34.51.71.89.97,1.49.81,1.89.69,3.65.07,5.57ZM29.47,99.64c2.67-1.11,5.35-1.28,7.91.2,1.07-2.7.72-6.82-2.29-8.09-2.32-.98-4.86-.11-7.05.76,2.39,1.65,2.65,4.65,1.43,7.13ZM80.7,100.42l3.48-7.49c.07-.47-.78-.81-1.14-.88-1.99-.4-4.14.62-5.45,2.08,1.54.88,2.39,2.53,2.79,4.21l.32,2.08ZM26.36,101.85c.95-.78,1.83-1.07,2.34-2.27.89-2.12,1.01-5.64-1.63-6.51l-4.86,5.21c-.04.28.04.15.19.2.5.15,1.02.2,1.53.42,1.11.49,2.18,1.73,2.44,2.95ZM78.62,103.92c2.38-3.65.78-9.93-4.35-9.6-.86.06-3.5.92-4.02,1.56-.08.1-.14.23.02.27,2.59,1.51,3.78,5.08,2.9,7.9.87-.38,1.66-.96,2.65-1.04.9-.07,1.77.08,2.51.61.18.13.11.32.29.3ZM65.39,106.13c1.77-1.24,4.22-1.64,6.16-.55,1.44-1.36,1.15-4.21.48-5.89-1.61-4.02-6.03-4.42-9.49-2.5-.03.17-.03.17.08.27.3.27.95.56,1.28.9,1.96,1.98,2.3,5.21,1.49,7.78ZM57.48,106.52c2.21-1.63,4.53-1.52,6.81-.13.12.07.09.22.26,0,1.7-5.97-2.45-10.71-8.5-7.91.33.75.87,1.35,1.19,2.11.85,2.01.68,3.84.24,5.92ZM56.7,106.52c.37-1.98.42-4.08-.49-5.92-1.61-3.24-5.87-3.23-8.58-1.4.42.66.98,1.02,1.37,1.74.74,1.38.95,3.06.68,4.58-.1.57-.32,1.11-.48,1.65,2.23-1.47,5.12-2.08,7.52-.65ZM39.97,108.21c1.86-1.15,4.2-1.77,6.35-1.23.66.16,1.22.49,1.82.78,1.17-2.99,1.04-7.06-2.43-8.34-2.56-.95-5.24-.2-7.56,1.01-.08.11.74,1.03.88,1.26,1.21,1.97,1.49,4.29.93,6.52ZM20.42,133.53c.11-.65-.17-1-.1-1.2.09-.29.14-.14.23.03.53,1.02.88,2.02,1.68,2.92,3.75-.01,7.4-.91,10.97-2.01,4.37-1.34,7.79-2.63,10.17-6.82,3.75-6.62,1.03-13.56-5.25-17.23-3.44-2.01-6.15-.98-9.52-2.02-4.28-1.32-1.29-5.1-4.7-7.11-.75-.44-1.58-.54-2.41-.7-.32.02-2.31,2.47-2.64,2.91-.74.95-1.33,1.98-2.03,2.9-.65.87-1.48,1.54-2.1,2.43-1.45,2.05-2.13,4.47-3.16,6.7-1.44,3.13-4.73,7.74-4.52,11.17.03.45.2.92.26,1.36l-1.1-2.2c-1.87,1.36-1.55,4.03-.51,5.83,2,3.46,7.35,5.12,11.15,5.2.45,0,.89-.26,1.39-.11.28.09,1.41-.13,1.65-.52M39.19,108.46c.42-2.96-.12-6.71-3.11-8.11s-6.83-.01-9.41,1.88c.28,2.94,1.05,3.72,3.92,4.13,2.44.35,4.26.11,6.66,1.12.67.28,1.26.72,1.95.97ZM74.21,110.15c.53-.61,3.94-5.29,3.87-5.62-.97-1.1-3.07-.59-4.22.02-.62.33-1.09.9-1.73,1.19l.08.27c1.33.84,1.98,2.63,1.99,4.14ZM73.43,110.54c-.07-4.84-4.89-5.69-8.43-3.5,1.15,1.18,1.83,2.73,1.82,4.41,2.15-.58,4.37-.96,6.61-.91ZM65.89,111.82c.21-4.6-4.4-6.93-8.28-4.65,2.47,2.39,2.72,5.8,1.69,8.95,2.04-1.67,4.11-3.34,6.59-4.3ZM58.13,117.41c2.51-6-.82-13.42-8.09-9.84-.37.18-1.3.53-1,.96.38.55,1.09,1.02,1.54,1.7,1.13,1.75,1.26,3.59.93,5.62,2-.85,4.59-1.2,6.09.71.22.28.26.67.52.84ZM10.4,113.78l3.11-6.48c-1.93,1.54-3.33,3.94-3.11,6.48ZM50.74,116.25c.28-1.99,0-4.02-1.06-5.75-2.34-3.83-6.14-3.08-9.7-1.51-.08.3.08.22.17.29.97.87,2.02,1.69,2.88,2.69,4.6,5.34,3.82,12.7-.72,17.77,1.19-.58,2.4-1.16,3.54-1.84,1.76-1.05,4.27-2.44,4.88-4.46,1.09-3.58.01-7.43-3.82-8.49-.21-.06-.38.14-.32-.26.74,0,1.49-.08,2.2.2.77.3,1.21,1.15,1.95,1.36ZM54.11,122.73h2.01c4.41-4.14,9.3-7.9,15.04-9.99-.05.27-.57.49-.8.62-4.76,2.72-9.31,5.6-13.38,9.31-.14.13-.33.19-.27.44.37.31,2.31-.86,2.76-1.06,6.15-2.67,12.74-4.01,18.81-6.87.63-.3,1.85-1.12,2.36-1.28.07-.02.21-.04.19.06-6.53,5-15,6.11-22.38,9.39-.16.07-.23-.06-.18.27,5.12.81,10.42.1,15.46-.95,4.92-1.03,10.35-2.41,14.44-5.41.21.14-.09.36-.19.46-3.25,3.08-9.82,4.87-14.14,5.84-6.53,1.47-13.79,2.42-20.04-.55l-2.01,1.78c2.03.02,3.8,1.08,5.71,1.62,9.6,2.71,24.1.46,31.71-6.29.97-.86,3.48-3.23,1.71-4.31-1.25-.76-2.7-.6-4.03-.77-2.73-.35-2.86-2.06-5.24-2.93-2.54-.93-5.03-.55-7.61-.43-6.01.28-8.85,1.03-13.49,4.94l-6.42,6.09ZM51.91,122.99l5.39-5.06c.31-.68-1.23-1.56-1.78-1.72-1.64-.48-2.89.08-4.39.69,1.05,1.82,1.24,4.05.78,6.09Z" style="fill:#90a853;"/><path d="M30.6,118.09c4.57-.78,5.02,4.91,1.89,7.34-4.05,3.16-7.7-.25-5.17-4.65.59-1.02,2.07-2.48,3.28-2.69ZM27.39,122.5c-.22.66-.1,1.72.25,2.33,1.18,2.08,4.62.46,5.61-1.75,1.26-2.8-.71-5.38-3.53-3.66-.76.62-.4.23-1.34,1.24-.26.28-.68.9-.99,1.83Z" style="fill:#90a853;"/><path d="M39.97,117.02c3.01,5.07.23,12.35-5.83,13.23.48-.42,1.17-.6,1.73-.93,4.11-2.46,5.51-7.85,3.85-12.23l.26-.06Z" style="fill:#90a853;"/><path d="M34.4,116.12c-3.16-1.13-6.56.47-8.32,3.16l-.63,1.25c.24-4.02,5.65-7.42,8.95-4.41Z" style="fill:#90a853;"/><path d="M15.33,132.72c-.24-1.88,1.68-2.48,2.72-.97-.15.66-.79.13-1.14.08-.95-.13-.8.9-1.59.88Z" style="fill:#90a853;"/><ellipse cx="30.57" cy="122.03" rx="1.53" ry=".75" transform="translate(-77.33 57.36) rotate(-45)" style="fill:#90a853;"/></g></g></svg>